<svg id="Layer_2" data-name="Layer 2" xmlns="http://www.w3.org/2000/svg" viewBox="0 0 65 65"><defs><style>.cls-1{fill:#393d46;}</style></defs><title>logo-login</title>
<path class="cls-1" style="fill:#fff;" d="M66.58,8.5h-51a7,7,0,0,0-7,7v51a7,7,0,0,0,7,7h51a7,7,0,0,0,7-7v-51A7,7,0,0,0,66.58,8.5Zm3.89,36.29a28.94,28.94,0,0,1-5.18,11.45,27.49,27.49,0,0,1-8.21,7.56A32.49,32.49,0,0,1,41.74,69a28.74,28.74,0,0,1-16.42-3A26.58,26.58,0,0,1,14.08,55.37,24.88,24.88,0,0,1,11.49,39.6,25.8,25.8,0,0,1,17.32,26a28.93,28.93,0,0,1,11-8.64,33.63,33.63,0,0,1,11.23-3.24c3.46-.22,6.7-.43,10.59.86a19.57,19.57,0,0,1,9.51,7.13,17.94,17.94,0,0,1,2.81,7.35,24.76,24.76,0,0,1-1.94,15.77,23.46,23.46,0,0,1-9.07,9.29,22.65,22.65,0,0,1-12.53,3.24,30.27,30.27,0,0,1-6-1.3,23.71,23.71,0,0,0,16.2-6.91c.65-.86,8.86-9.51,5.62-19.23a16,16,0,0,0-7.35-8.64c-5.83-3-11.88-.65-14,0a20.13,20.13,0,0,0-8.86,6.48,20.75,20.75,0,0,0-5.4,12.1c0,2.16-.22,8,3.89,13.18a19.68,19.68,0,0,0,10.15,6.48,46.78,46.78,0,0,0,5.4.86,40.24,40.24,0,0,0,14.69-2.59C65.72,52.78,70.9,39,70.9,37.22,70.9,40.25,71.33,40.47,70.47,44.79ZM28.83,51.35c-3.26-3-1.85-9.82,3.14-15.28s11.68-7.47,14.94-4.49,1.85,9.82-3.14,15.28S32.09,54.33,28.83,51.35Z" transform="translate(-8.6 -8.5)"/>
</svg>