<svg xmlns="http://www.w3.org/2000/svg" viewBox="0 0 270 54" enable-background="new 0 0 270 54"><style type="text/css">.st0{fill:#FFFFFF;}</style><g id="XMLID_17_"><path id="XMLID_27_" d="M22.4 41.6c2-.1 9.6-.6 15.4-6.6.7-.8 8.5-9.1 5.4-18.3-.3-.8-2-5.6-7-8.2-5.6-2.9-11.3-.7-13.5.1-4.7 1.8-7.4 4.8-8.5 6.1-1.5 1.7-4.7 5.6-5.1 11.5-.1 2-.3 7.6 3.7 12.5 3.4 4.3 7.9 5.6 9.8 6.1 2.2.6 3.9.7 5.2.8.4 0 7.5.3 14-2.5 11.9-5.2 17-18.5 17-20 0 2.9.4 3.1-.4 7.3-.5 2.5-1.7 6.7-4.9 10.9-.6.9-3.2 4.3-7.9 7.3-6.2 4-12.3 4.8-14.7 4.9-2.7.2-8.9.6-15.7-2.9-2.2-1.1-7.4-3.9-10.8-10.2-3.6-6.7-2.8-13-2.5-15.1 1-6.6 4.3-11 5.6-12.7 3.9-5 8.4-7.2 10.6-8.3 4.8-2.4 9-2.9 10.8-3.1C32.1 1 35.2.7 39 2c1.3.5 5.9 2.1 9.1 6.9 1.8 2.7 2.3 5.3 2.7 7.1.4 2.2 1.5 8.4-1.9 15-.5 1-3.1 5.7-8.6 8.9-1.6.9-6 3.4-11.9 3-2.6-.1-4.7-.8-6-1.3z" class="st0"/><ellipse id="XMLID_26_" cx="27.1" cy="27.4" transform="matrix(.675 -.738 .738 .675 -11.42 28.876)" class="st0" rx="12.7" ry="7.7"/></g><g id="XMLID_5_"><path id="XMLID_743_" d="M80.9 8.2c.4 0 .5.2.5.5v2.4c0 .4-.2.5-.5.5H70.8c-.6 0-1.1.1-1.5.2-.4.1-.7.3-.9.5-.2.3-.4.6-.5 1-.1.4-.1 1-.1 1.6v.3h13c.3 0 .5.2.5.5v2c0 .4-.2.5-.5.5h-13v.4c0 .7.1 1.2.1 1.6.1.4.3.8.5 1 .2.3.6.4.9.5.4.1.9.2 1.5.2h10.1c.4 0 .5.2.5.5v2.4c0 .4-.2.5-.5.5H70.7c-1.2 0-2.2-.1-3-.3-.8-.2-1.5-.6-2-1.1s-.9-1.2-1.1-2c-.2-.9-.4-1.9-.4-3.1v-4.3c0-1.2.1-2.2.4-3.1.2-.8.6-1.5 1.1-2 .5-.5 1.2-.9 2-1.2.8-.2 1.8-.4 3-.4l10.2.4z" class="st0"/><path id="XMLID_745_" d="M96.3 8.2c1.8 0 3 .4 3.8 1.3.8.9 1.2 2.2 1.2 3.9v1.8c0 1.7-.4 3-1.2 3.9-.8.9-2 1.3-3.8 1.3h-9.6v4.8c0 .4-.2.5-.5.5h-2.5c-.4 0-.5-.2-.5-.5V9c0-.5.2-.7.7-.7l12.4-.1zm-9.5 8.9h8.8c.8 0 1.3-.2 1.7-.5.3-.4.5-.9.5-1.7V14c0-.7-.2-1.3-.5-1.7-.3-.4-.9-.5-1.7-.5h-8.5c-.2 0-.3.1-.3.3v5z" class="st0"/><path id="XMLID_748_" d="M110.7 8.2c.6 0 1.1.1 1.5.4.4.3.8.8 1.2 1.5l7.6 15c.1.2.1.3.1.4 0 .1-.1.2-.3.2h-2.9c-.3 0-.4-.1-.5-.3l-1.6-3.2H105l-1.6 3.2c-.1.2-.3.3-.5.3h-3c-.2 0-.3-.1-.4-.2 0-.1 0-.3.1-.4l7.6-15c.4-.7.8-1.2 1.1-1.5.4-.3.8-.4 1.3-.4h1.1zm-4.5 11.1h7.9l-3.7-7.3c-.1-.1-.1-.2-.3-.2h-.1c-.1 0-.2.1-.3.2l-3.5 7.3z" class="st0"/><path id="XMLID_751_" d="M124.1 8.2c.3 0 .5.2.5.5v10c0 .7.1 1.2.1 1.7.1.4.3.8.5 1 .2.3.5.4.9.5.4.1.9.2 1.5.2h9.3c.3 0 .5.2.5.5v2.5c0 .4-.2.5-.5.5h-9.5c-1.2 0-2.2-.1-3-.3-.8-.2-1.5-.6-2-1.1s-.9-1.2-1.1-2c-.2-.9-.4-1.9-.4-3.1V8.8c0-.4.2-.5.5-.5l2.7-.1z" class="st0"/></g><g id="XMLID_6_"><path id="XMLID_724_" d="M160.2 8.2c.4 0 .5.2.5.5v2.4c0 .4-.2.5-.5.5h-12.5c-.5 0-.8.1-1 .4-.2.3-.3.6-.3 1v.9c0 .9.4 1.4 1.3 1.4h9.4c1.4 0 2.6.4 3.3 1.1.7.7 1.1 1.8 1.1 3.2v2c0 1.2-.4 2.2-1.1 2.9-.7.7-1.8 1.1-3.3 1.1h-13.9c-.4 0-.6-.2-.6-.5v-2.4c0-.4.2-.5.6-.5h13.1c.5 0 .8-.1 1-.4s.3-.6.3-1v-1c0-.9-.4-1.4-1.3-1.4h-9.4c-1.4 0-2.6-.4-3.3-1.1-.7-.7-1.1-1.8-1.1-3.2v-1.8c0-1.2.4-2.2 1.1-2.9.7-.7 1.8-1.1 3.3-1.1h13.3z" class="st0"/><path id="XMLID_726_" d="M176.1 12c1.1 0 2.1.1 2.8.3.8.2 1.4.5 1.8.9.5.4.8.9 1 1.6.2.7.3 1.4.3 2.3v3.6c0 .9-.1 1.7-.3 2.3-.2.7-.5 1.2-1 1.6-.5.4-1.1.7-1.8.9-.8.2-1.7.3-2.8.3H169c-1.1 0-2.1-.1-2.8-.3s-1.4-.5-1.8-.9c-.5-.4-.8-.9-1-1.6-.2-.6-.3-1.4-.3-2.3v-3.6c0-.9.1-1.7.3-2.3.2-.6.5-1.2 1-1.6.5-.4 1.1-.7 1.8-.9.8-.2 1.7-.3 2.8-.3h7.1zm-9.5 8c0 .5 0 1 .1 1.3.1.3.2.6.4.8.2.2.5.4.8.5.3.1.8.1 1.3.1h6.4c.5 0 1-.1 1.4-.1.3-.1.6-.2.8-.5.2-.2.4-.5.4-.8.1-.3.1-.8.1-1.3v-2.4c0-.5 0-1-.1-1.3-.1-.3-.2-.6-.4-.9-.2-.2-.5-.4-.8-.5-.3-.1-.8-.1-1.4-.1h-6.4c-.5 0-1 0-1.3.1-.3.1-.6.2-.8.5-.2.2-.4.5-.4.9-.1.3-.1.8-.1 1.3V20z" class="st0"/><path id="XMLID_729_" d="M187.1 7c.4 0 .5.2.5.5v17.7c0 .4-.2.5-.5.5h-2.5c-.4 0-.5-.2-.5-.5V7.5c0-.4.2-.5.5-.5h2.5z" class="st0"/><path id="XMLID_731_" d="M192.9 12c.4 0 .5.2.5.6v7.2c0 .5 0 1 .1 1.3.1.3.2.6.4.8.2.2.4.4.8.5.3.1.8.1 1.3.1h6.4c.5 0 1-.1 1.4-.1.3-.1.6-.2.8-.5.2-.2.4-.5.4-.8.1-.3.1-.8.1-1.3v-7.2c0-.4.2-.6.5-.6h2.5c.4 0 .5.2.5.6v8.1c0 .9-.1 1.7-.3 2.3-.2.7-.5 1.2-1 1.6-.5.4-1.1.7-1.8.9-.8.2-1.7.3-2.8.3h-7c-1.1 0-2.1-.1-2.8-.3s-1.4-.5-1.8-.9c-.5-.4-.8-.9-1-1.6-.2-.6-.3-1.4-.3-2.3v-8.1c0-.4.2-.6.6-.6h2.5z" class="st0"/><path id="XMLID_733_" d="M212.6 12V8.7c0-.4.2-.5.5-.5h2.5c.4 0 .5.2.5.5V12h4.4c.3 0 .5.1.5.5v2c0 .3-.1.5-.5.5h-4.4v5.8c0 .7.1 1.2.4 1.5.3.3.9.5 1.7.5h2.4c.3 0 .5.1.5.5v2c0 .3-.1.5-.5.5h-3c-1 0-1.8-.1-2.5-.3-.7-.2-1.2-.5-1.6-.9-.4-.4-.7-.9-.8-1.6-.1-.6-.2-1.4-.2-2.3v-5.8h-2.4c-.3 0-.5-.1-.5-.5v-2c0-.3.1-.5.5-.5l2.5.1z" class="st0"/><path id="XMLID_735_" d="M225.3 6.9c.4 0 .5.2.5.5v2.4c0 .4-.2.6-.5.6h-2.5c-.4 0-.6-.2-.6-.6V7.5c0-.4.2-.5.6-.5h2.5zm0 5.1c.4 0 .5.2.5.6v12.6c0 .4-.2.5-.5.5h-2.5c-.4 0-.5-.2-.5-.5V12.6c0-.4.2-.6.5-.6h2.5z" class="st0"/><path id="XMLID_738_" d="M241 12c1.1 0 2.1.1 2.8.3.8.2 1.4.5 1.8.9.5.4.8.9 1 1.6.2.7.3 1.4.3 2.3v3.6c0 .9-.1 1.7-.3 2.3-.2.7-.5 1.2-1 1.6-.5.4-1.1.7-1.8.9-.8.2-1.7.3-2.8.3h-7.1c-1.1 0-2.1-.1-2.8-.3s-1.4-.5-1.8-.9c-.5-.4-.8-.9-1-1.6-.2-.6-.3-1.4-.3-2.3v-3.6c0-.9.1-1.7.3-2.3.2-.6.5-1.2 1-1.6.5-.4 1.1-.7 1.8-.9s1.7-.3 2.8-.3h7.1zm-9.5 8c0 .5 0 1 .1 1.3.1.3.2.6.4.8.2.2.5.4.8.5s.8.1 1.3.1h6.4c.5 0 1-.1 1.4-.1.3-.1.6-.2.8-.5.2-.2.4-.5.4-.8.1-.3.1-.8.1-1.3v-2.4c0-.5 0-1-.1-1.3-.1-.3-.2-.6-.4-.9-.2-.2-.5-.4-.8-.5-.3-.1-.8-.1-1.4-.1h-6.4c-.5 0-1 0-1.3.1-.3.1-.6.2-.8.5-.2.2-.4.5-.4.9-.1.3-.1.8-.1 1.3V20z" class="st0"/><path id="XMLID_741_" d="M262 12c1.1 0 2.1.1 2.8.3.8.2 1.4.5 1.8.9.5.4.8.9 1 1.6.2.7.3 1.4.3 2.3v8.1c0 .4-.2.5-.5.5H265c-.4 0-.5-.2-.5-.5v-7.3c0-.5 0-1-.1-1.3-.1-.4-.2-.6-.4-.9-.2-.2-.5-.4-.8-.5-.3-.1-.8-.1-1.3-.1h-6.7c-.5 0-1 .1-1.3.1-.3.1-.6.2-.8.5-.2.2-.4.5-.4.9-.1.4-.1.8-.1 1.3v7.3c0 .4-.2.5-.5.5h-2.5c-.4 0-.6-.2-.6-.5v-8.1c0-.9.1-1.7.3-2.3.2-.6.5-1.2 1-1.6.5-.4 1.1-.7 1.8-.9.8-.2 1.7-.3 2.8-.3h7.1z" class="st0"/></g><g id="XMLID_7_"><path id="XMLID_183_" d="M73.3 42.1c0 2.9-1.6 5.2-4.4 5.2-2.8 0-4.4-2.4-4.4-5.2 0-2.9 1.6-5.2 4.4-5.2 2.8 0 4.4 2.4 4.4 5.2zm-7.2 0c0 1.9.8 3.8 2.8 3.8 2 0 2.8-1.9 2.8-3.8s-.8-3.8-2.8-3.8c-1.9 0-2.8 1.9-2.8 3.8z" class="st0"/><path id="XMLID_675_" d="M81.9 47.1h-1.4v-1c-.4.7-1.2 1.2-1.9 1.2-1.7 0-2.5-1-2.5-2.8v-4.6h1.5v4.4c0 1.3.5 1.7 1.3 1.7 1.2 0 1.6-.9 1.6-2v-4.2H82l-.1 7.3z" class="st0"/><path id="XMLID_677_" d="M84.8 39.9h1.4v1.4c.2-.8 1-1.6 2-1.6.3 0 .4 0 .6 0v1.5c-.2 0-.4-.1-.6-.1-1 0-1.8.9-1.8 2.5V47h-1.5l-.1-7.1z" class="st0"/><path id="XMLID_679_" d="M97 43.8c0 1.5 1 2.1 2.3 2.1 1.4 0 2-.8 2-1.5 0-.8-.4-1.1-.8-1.2-.7-.3-1.5-.5-2.8-.8-1.6-.5-2-1.5-2-2.5 0-2 1.7-2.9 3.4-2.9 1.9 0 3.5 1.1 3.5 3.2H101c-.1-1.3-.9-1.8-2-1.8-.7 0-1.7.3-1.7 1.3 0 .7.4 1.1 1.1 1.3.1 0 2.2.6 2.7.8 1.2.4 1.8 1.5 1.8 2.6 0 2.2-1.8 3.1-3.7 3.1-2.1 0-3.8-1.1-3.9-3.6l1.7-.1z" class="st0"/><path id="XMLID_681_" d="M105.2 43.5c0-2.2 1.2-3.8 3.4-3.8s3.4 1.6 3.4 3.8c0 2.2-1.2 3.8-3.4 3.8s-3.4-1.6-3.4-3.8zm5.3 0c0-1.2-.6-2.6-1.9-2.6-1.3 0-1.9 1.3-1.9 2.6s.6 2.6 1.9 2.6c1.3 0 1.9-1.3 1.9-2.6z" class="st0"/><path id="XMLID_684_" d="M114.6 37.1h1.5v10h-1.5v-10z" class="st0"/><path id="XMLID_686_" d="M124.9 47.1h-1.4v-1c-.4.7-1.2 1.2-1.9 1.2-1.7 0-2.5-1-2.5-2.8v-4.6h1.5v4.4c0 1.3.5 1.7 1.3 1.7 1.2 0 1.6-.9 1.6-2v-4.2h1.5l-.1 7.3z" class="st0"/><path id="XMLID_688_" d="M127.2 39.9h1.1v-2.2h1.5v2.2h1.3v1.2h-1.3V45c0 .7.1 1 .7 1 .2 0 .4 0 .6-.1v1.2c-.3 0-.6.1-1 .1-1.5 0-1.8-.7-1.8-1.8v-4.3h-1.1v-1.2z" class="st0"/><path id="XMLID_690_" d="M133.6 37.1h1.5v1.5h-1.5v-1.5zm0 2.8h1.5v7.2h-1.5v-7.2z" class="st0"/><path id="XMLID_693_" d="M137.8 43.5c0-2.2 1.2-3.8 3.4-3.8s3.4 1.6 3.4 3.8c0 2.2-1.2 3.8-3.4 3.8s-3.4-1.6-3.4-3.8zm5.3 0c0-1.2-.6-2.6-1.9-2.6-1.3 0-1.9 1.3-1.9 2.6s.6 2.6 1.9 2.6c1.3 0 1.9-1.3 1.9-2.6z" class="st0"/><path id="XMLID_696_" d="M147.2 39.9h1.4V41c.4-.8 1.2-1.3 2.1-1.3 1.4 0 2.4.8 2.4 2.5v5h-1.5v-4.5c0-1.1-.4-1.6-1.3-1.6-1 0-1.6.8-1.6 1.9v4.3h-1.5v-7.4z" class="st0"/><path id="XMLID_698_" d="M160.8 42.6h3.8v1.5h-3.8v-1.5z" class="st0"/><path id="XMLID_700_" d="M175 43.2l-3.5-6.1h1.9l2.4 4.5 2.4-4.5h1.8l-3.5 6.1v3.9H175v-3.9z" class="st0"/><path id="XMLID_702_" d="M180.6 43.5c0-2.2 1.2-3.8 3.4-3.8s3.4 1.6 3.4 3.8c0 2.2-1.2 3.8-3.4 3.8s-3.4-1.6-3.4-3.8zm5.3 0c0-1.2-.6-2.6-1.9-2.6s-1.9 1.3-1.9 2.6.6 2.6 1.9 2.6 1.9-1.3 1.9-2.6z" class="st0"/><path id="XMLID_705_" d="M195.9 47.1h-1.4v-1c-.4.7-1.2 1.2-1.9 1.2-1.7 0-2.5-1-2.5-2.8v-4.6h1.5v4.4c0 1.3.5 1.7 1.3 1.7 1.2 0 1.6-.9 1.6-2v-4.2h1.5l-.1 7.3z" class="st0"/><path id="XMLID_707_" d="M198.8 39.9h1.4v1.4c.2-.8 1-1.6 2-1.6.3 0 .4 0 .6 0v1.5c-.2 0-.4-.1-.6-.1-1 0-1.8.9-1.8 2.5V47h-1.5v-7.1z" class="st0"/><path id="XMLID_709_" d="M211 43.8c0 1.5 1 2.1 2.3 2.1 1.4 0 2-.8 2-1.5 0-.8-.4-1.1-.8-1.2-.7-.3-1.5-.5-2.8-.8-1.6-.5-2-1.5-2-2.5 0-2 1.7-2.9 3.4-2.9 1.9 0 3.5 1.1 3.5 3.2H215c-.1-1.3-.9-1.8-2-1.8-.7 0-1.7.3-1.7 1.3 0 .7.4 1.1 1.1 1.3.1 0 2.2.6 2.7.8 1.2.4 1.8 1.5 1.8 2.6 0 2.2-1.8 3.1-3.7 3.1-2.1 0-3.8-1.1-3.9-3.6l1.7-.1z" class="st0"/><path id="XMLID_711_" d="M225.4 47.1H224v-1c-.4.7-1.2 1.2-1.9 1.2-1.7 0-2.5-1-2.5-2.8v-4.6h1.5v4.4c0 1.3.5 1.7 1.3 1.7 1.2 0 1.6-.9 1.6-2v-4.2h1.5l-.1 7.3z" class="st0"/><path id="XMLID_713_" d="M232.8 42.3c-.1-.9-.7-1.4-1.5-1.4s-1.8.4-1.8 2.6c0 1.2.5 2.5 1.8 2.5.9 0 1.4-.6 1.6-1.6h1.5c-.3 1.9-1.3 2.9-3.1 2.9-2.1 0-3.2-1.6-3.2-3.7 0-2.2 1.1-3.9 3.3-3.9 1.6 0 2.9.8 3 2.6h-1.6z" class="st0"/><path id="XMLID_715_" d="M241.4 42.3c-.1-.9-.7-1.4-1.5-1.4s-1.8.4-1.8 2.6c0 1.2.5 2.5 1.8 2.5.9 0 1.4-.6 1.6-1.6h1.5c-.3 1.9-1.3 2.9-3.1 2.9-2.1 0-3.2-1.6-3.2-3.7 0-2.2 1.1-3.9 3.3-3.9 1.6 0 2.9.8 3 2.6h-1.6z" class="st0"/><path id="XMLID_717_" d="M246.6 43.9c0 1.1.6 2.1 1.8 2.1.9 0 1.4-.4 1.6-1.2h1.4c-.3 1.6-1.6 2.5-3 2.5-2.1 0-3.3-1.6-3.3-3.8 0-2.1 1.2-3.8 3.2-3.8 2.1 0 3.4 2.1 3.1 4.2h-4.8zm3.5-1c-.1-1-.7-1.9-1.7-1.9s-1.7.8-1.8 1.9h3.5z" class="st0"/><path id="XMLID_720_" d="M255.2 44.8c.1.9.7 1.3 1.5 1.3.6 0 1.5-.1 1.5-1s-1.1-.9-2.2-1.2-2.2-.7-2.2-2.1c0-1.6 1.6-2.1 2.8-2.1 1.4 0 2.6.6 2.8 2.2h-1.5c-.1-.8-.7-1-1.4-1-.4 0-1.2.1-1.2.7 0 .8 1.1.9 2.2 1.2 1.1.3 2.2.7 2.2 2.1 0 1.7-1.6 2.4-3 2.4-1.7 0-2.9-.8-3-2.5h1.5z" class="st0"/><path id="XMLID_722_" d="M263.3 44.8c.1.9.7 1.3 1.5 1.3.6 0 1.5-.1 1.5-1s-1.1-.9-2.2-1.2-2.2-.7-2.2-2.1c0-1.6 1.6-2.1 2.8-2.1 1.4 0 2.6.6 2.8 2.2H266c-.1-.8-.7-1-1.4-1-.4 0-1.2.1-1.2.7 0 .8 1.1.9 2.2 1.2 1.1.3 2.2.7 2.2 2.1 0 1.7-1.6 2.4-3 2.4-1.7 0-2.9-.8-3-2.5h1.5z" class="st0"/></g></svg>