<svg id="logo_1" data-name="logo 1" xmlns="http://www.w3.org/2000/svg" viewBox="0 0 544.68 173.41"><defs><style>.cls-1{fill:#FFFFFF;}.cls-2{fill:#FFFFFF;}.cls-3{fill:#FFFFFF;}.cls-4{fill:#FFFFFF;}</style></defs><title>Logo-Halozend</title><g id="_Group_" data-name="&lt;Group&gt;"><path id="_Path_" data-name="&lt;Path&gt;" class="cls-1" d="M112.83,162.48s0-15.38,15.81-38a176.05,176.05,0,0,1,15.47-19.23s1.51-27.5,29.73-50.4c36.7-29.77,77-16.32,77-16.32C226.39,48.63,211.24,57.44,178.31,83,135.37,116.3,120.25,143.85,112.83,162.48Z" transform="translate(-112.83 -35.54)"/><path id="_Compound_Path_" data-name="&lt;Compound Path&gt;" class="cls-1" d="M206.88,102.8c-9.42-7.25-27,3.32-42.43,16C152.79,128.32,133.22,146.48,124,161c-17.56,27.54-.08,29.9,18.94,22.93,7.18-2.63,17.61-8.61,17.61-8.61l5,5.29,6.26,6.61s20.38-12.69,31.78-39.14C209.46,134.42,213,107.5,206.88,102.8Zm-70.71,67c-7.07,1.87-13,1.95-6.54-10.27,3.37-6.34,14.6-18.51,14.6-18.51s2.4,8.75,3.49,11.55,4.47,9.18,4.47,9.18S143.12,168,136.17,169.81Z" transform="translate(-112.83 -35.54)"/><path id="_Compound_Path_2" data-name="&lt;Compound Path&gt;" class="cls-2" d="M191.4,104.11a61.4,61.4,0,0,1,8.28-3.67c-9.76-.19-23.14,8.44-35.22,18.33C152.79,128.32,133.22,146.48,124,161c-17.56,27.54-.08,29.9,18.94,22.93,7.18-2.63,17.61-8.61,17.61-8.61l-5.42-8.81c-4.95-8-4.71-29.32,5.57-39.76C173.6,113.6,183.93,108.67,191.4,104.11Zm-55.23,65.7c-7.07,1.87-13,1.95-6.54-10.27,3.37-6.34,14.6-18.51,14.6-18.51s2.4,8.75,3.49,11.55,4.47,9.18,4.47,9.18S143.12,168,136.17,169.81Z" transform="translate(-112.83 -35.54)"/><path id="_Compound_Path_3" data-name="&lt;Compound Path&gt;" class="cls-3" d="M144.23,141c-3.73,4.18-15.53,17.38-17.94,24.54-2.7,8-.65,12.68,12.92,9.39,7.43-1.8,17.19-6.41,17.19-6.41l-1.28-2.08c-4.95-8-2.93-19.68-2.93-24.85C152.19,139.92,147,137.9,144.23,141Zm-8.06,28.78c-7.07,1.87-13,1.95-6.54-10.27,3.37-6.34,14.6-18.51,14.6-18.51s2.4,8.75,3.49,11.55,4.47,9.18,4.47,9.18S143.12,168,136.17,169.81Z" transform="translate(-112.83 -35.54)"/><path id="_Path_2" data-name="&lt;Path&gt;" class="cls-4" d="M156.94,169.33s-4.75-14.56-3.76-22.54c1.12-9,4.41-13.24,15.81-25,13.62-14,30.68-21.39,30.68-21.39s-11.35.56-29.56,14.72A164.7,164.7,0,0,0,144.23,141s1.57,8,3.51,12.35C150.3,159.12,156.94,169.33,156.94,169.33Z" transform="translate(-112.83 -35.54)"/><path id="_Path_3" data-name="&lt;Path&gt;" class="cls-4" d="M147.92,90a152.17,152.17,0,0,1,18.68-12.53,161.17,161.17,0,0,1,34.87-13.27S181.17,75.52,166.68,86c-7.57,5.46-22.57,19.32-22.57,19.32a47.28,47.28,0,0,1,1.5-8.13A55.38,55.38,0,0,1,147.92,90Z" transform="translate(-112.83 -35.54)"/></g><g id="_Group_2" data-name="&lt;Group&gt;"><path id="_Path_4" data-name="&lt;Path&gt;" class="cls-1" d="M344.54,82.34s0,15.38-15.92,37.92a176.05,176.05,0,0,1-15.53,19.18s-1.59,27.5-29.87,50.32c-36.78,29.67-77,16.11-77,16.11,24.47-10,39.64-18.76,72.65-44.22C321.87,128.46,337.08,100.94,344.54,82.34Z" transform="translate(-112.83 -35.54)"/><path id="_Compound_Path_4" data-name="&lt;Compound Path&gt;" class="cls-1" d="M250.33,141.76c9.4,7.27,27-3.25,42.47-15.85,11.69-9.52,31.31-27.62,40.59-42.08,17.64-27.49.16-29.9-18.88-23-7.19,2.61-17.64,8.56-17.64,8.56l-5-5.3-6.24-6.63s-20.42,12.63-31.89,39C247.84,110.13,244.24,137,250.33,141.76Zm70.9-66.82c7.08-1.85,13-1.91,6.51,10.29-3.39,6.33-14.66,18.47-14.66,18.47s-2.38-8.76-3.46-11.56-4.44-9.2-4.44-9.2S314.27,76.76,321.23,74.94Z" transform="translate(-112.83 -35.54)"/><path id="_Compound_Path_5" data-name="&lt;Compound Path&gt;" class="cls-2" d="M265.81,140.49a61.4,61.4,0,0,1-8.29,3.65c9.76.21,23.16-8.37,35.27-18.23,11.69-9.52,31.31-27.62,40.59-42.08,17.64-27.49.16-29.9-18.88-23-7.19,2.61-17.64,8.56-17.64,8.56l5.39,8.82c4.93,8.05,4.63,29.34-5.68,39.75C283.63,131,273.29,136,265.81,140.49Zm55.41-65.55c7.08-1.85,13-1.91,6.51,10.29-3.39,6.33-14.66,18.47-14.66,18.47s-2.38-8.76-3.46-11.56-4.44-9.2-4.44-9.2S314.27,76.76,321.23,74.94Z" transform="translate(-112.83 -35.54)"/><path id="_Compound_Path_6" data-name="&lt;Compound Path&gt;" class="cls-3" d="M313.08,103.69c3.74-4.17,15.58-17.33,18-24.49,2.72-8,.69-12.68-12.89-9.43C310.77,71.56,301,76.14,301,76.14l1.27,2.08c4.93,8.05,2.88,19.68,2.86,24.86C305.12,104.79,310.28,106.82,313.08,103.69Zm8.14-28.75c7.08-1.85,13-1.91,6.51,10.29-3.39,6.33-14.66,18.47-14.66,18.47s-2.38-8.76-3.46-11.56-4.44-9.2-4.44-9.2S314.27,76.76,321.23,74.94Z" transform="translate(-112.83 -35.54)"/><path id="_Path_5" data-name="&lt;Path&gt;" class="cls-4" d="M300.46,75.36s4.71,14.57,3.69,22.55c-1.14,9-4.45,13.23-15.88,24.93-13.66,14-30.74,21.3-30.74,21.3s11.35-.53,29.6-14.64a164.7,164.7,0,0,0,26-25.81s-1.55-8-3.47-12.36C307.06,85.6,300.46,75.36,300.46,75.36Z" transform="translate(-112.83 -35.54)"/><path id="_Path_6" data-name="&lt;Path&gt;" class="cls-4" d="M309.26,154.68a152.18,152.18,0,0,1-18.71,12.48,161.17,161.17,0,0,1-34.91,13.17S276,169.11,290.48,158.7c7.59-5.44,22.62-19.26,22.62-19.26a47.28,47.28,0,0,1-1.52,8.13A55.38,55.38,0,0,1,309.26,154.68Z" transform="translate(-112.83 -35.54)"/></g><g id="_Group_3" data-name="&lt;Group&gt;"><path class="cls-1" d="M409.1,107.91,404.4,162q-.26,3.16,2.82,3.16l-.51,5.72h-4.87a9.49,9.49,0,0,1-6.66-2.26q-2.48-2.26-2.14-6.62l1.71-19.73H383.9l-2.48,28.62H370l5-57.24h-3.25l.51-5.72h14.61l-2.48,28.62h10.76l2.48-28.62Z" transform="translate(-112.83 -35.54)"/><path class="cls-1" d="M448.05,165.14l-.51,5.72h-4q-6,0-8.71-3.5a12.49,12.49,0,0,1-8.8,3.5h-1.79a16,16,0,0,1-9.91-3.08,9.59,9.59,0,0,1-4-9.06l1.62-19.14a12,12,0,0,1,5.64-9.06A18.36,18.36,0,0,1,428,127.47h19.73l-2.9,33.83Q444.46,165,448.05,165.14Zm-12.3-31.95h-8.2q-3.67,0-4,4.27l-1.88,22q-.51,5.72,4.87,5.72a6.76,6.76,0,0,0,4.7-1.88,6.87,6.87,0,0,0,2.31-4.53Z" transform="translate(-112.83 -35.54)"/><path class="cls-1" d="M469.58,107.91,465,160.19q-.43,4.61,3.5,5l-.43,5.72h-1.88q-6.24,0-9.65-2.86a8.6,8.6,0,0,1-3-7.82l4.1-46.56h-3.08l.51-5.72Z" transform="translate(-112.83 -35.54)"/><path class="cls-1" d="M505.11,139.6l-1.71,19.14a11.81,11.81,0,0,1-5.13,8.59,17.65,17.65,0,0,1-10.93,3.54h-1.71a16.18,16.18,0,0,1-10-3.08,9.59,9.59,0,0,1-4-9.06l1.71-19.14a11.8,11.8,0,0,1,5.64-9.06,18.1,18.1,0,0,1,10.42-3.08h1.79a16,16,0,0,1,9.91,3.08A9.7,9.7,0,0,1,505.11,139.6Zm-11.45,0a7,7,0,0,0-.9-4.7,3.56,3.56,0,0,0-3-1.62,4.38,4.38,0,0,0-3.25,1.54,8.23,8.23,0,0,0-1.79,4.78l-1.62,19.14a6.82,6.82,0,0,0,.94,4.61,3.78,3.78,0,0,0,3,1.79,4.09,4.09,0,0,0,3.29-1.58,8,8,0,0,0,1.75-4.83Z" transform="translate(-112.83 -35.54)"/><path class="cls-1" d="M546.54,108l-27,57.15h22.38l-.51,5.72h-36.9l26.91-57.24H514.17l.51-5.64Z" transform="translate(-112.83 -35.54)"/><path class="cls-1" d="M576.1,139.6h-5.72a5.41,5.41,0,0,0-1.37-4.4,6.14,6.14,0,0,0-3.93-2,5.37,5.37,0,0,0-5,2.14,8.86,8.86,0,0,0-1.84,5.55q0,5.47,4,5.47h10.59l-.51,5.64H561.83a4.26,4.26,0,0,0-3.72,2.18,9,9,0,0,0-1.41,5,7,7,0,0,0,1.41,4.44,4.55,4.55,0,0,0,4.14,1.62,6.94,6.94,0,0,0,4.23-1.92,6.77,6.77,0,0,0,2.18-4.57h5.72a12.24,12.24,0,0,1-5,9.14,16.5,16.5,0,0,1-10,3,15.06,15.06,0,0,1-9.82-3.42,9.79,9.79,0,0,1-4.1-8.71,12.07,12.07,0,0,1,5.89-9.57q-4.7-4.44-4.27-9.57a11.75,11.75,0,0,1,5.64-9,18,18,0,0,1,10.42-3.16q6,0,9.48,3Q576.61,133.71,576.1,139.6Z" transform="translate(-112.83 -35.54)"/><path class="cls-1" d="M615.14,165.14l-.51,5.72h-4.87a10.62,10.62,0,0,1-6.83-2.05,7.33,7.33,0,0,1-2.56-6.66l2-23.66a5.3,5.3,0,0,0-.85-3.5,3.92,3.92,0,0,0-3.33-1.79h-4.61l-3.33,37.67H578.83l3.33-37.67h-3.25l.51-5.72h19.31q7.09,0,11,2.82,4.44,3.25,3.93,9.57l-1.79,21.61q-.17,2.48.6,3.16Q613,165.14,615.14,165.14Z" transform="translate(-112.83 -35.54)"/><path class="cls-1" d="M657.51,107.91l-4.7,53.39q-.34,3.84,3.59,3.84l-.51,5.72h-4.27q-5.89,0-8.8-3.5a13.59,13.59,0,0,1-9.65,3.5A18.25,18.25,0,0,1,622.74,168a9.46,9.46,0,0,1-4.36-9.31L620,139.6a12,12,0,0,1,5.64-9.06,18.36,18.36,0,0,1,10.42-3.08h8.2l1.28-13.84H642.3l.51-5.72Zm-13.67,25.29h-8.29q-3.59,0-3.93,4.27l-1.88,22q-.51,5.72,4.78,5.72a6.75,6.75,0,0,0,4.7-1.88,6.87,6.87,0,0,0,2.31-4.53Z" transform="translate(-112.83 -35.54)"/></g></svg>