<svg xmlns="http://www.w3.org/2000/svg" viewBox="0 0 779.91 190.92"><defs><style>.cls-1,.cls-2{fill:#fff;}.cls-1{fill-rule:evenodd;}</style></defs><title>logo-blog-epal</title><path d="M89.7 0c-4.17-.15-10.2 4.74-10.93 9-1 4.75 2.3 11.93 5.9 13.08 3 .87 3.73 2.45 5.17 11.8.86 5.88.86 6-5.32 9.2a50.43 50.43 0 0 0-8.77 5.3c-1.3 1.16-2.6 1.88-2.87 1.6s-3.74-4.9-7.9-10.22S57.5 28.7 57.5 27.1c0-3.15-4.75-8.6-7.62-8.6a11.5 11.5 0 0 0-5 2.3c-5 3.44-3.88 10.63 2.3 13.64 2.44 1.3 7.9 6.62 11.93 11.8l7.34 9.48-3 4.74c-1.58 2.6-3.6 5.6-4.17 6.6-1 1.6-4.45.6-16.67-4.3-13.24-5.26-15.24-6.55-15.24-9.43 0-1.86-1.87-5.3-4.17-7.6-5.6-5.48-12.5-5.62-18.7-.44C.78 48.44.06 50.02.06 55.34c0 8.48 4.6 13.5 12.5 13.5a19.5 19.5 0 0 0 8.5-2c2.72-2 4.44-1.57 18 4 10.78 4.47 14.94 6.9 14.8 8.5s-.14 4.74-.3 7.47l-.28 5H43.5c-6.18-.15-10.64-.87-12.36-2.16-4-3-6.18-2.73-10.2 1.44-4.46 4.45-4.46 7 0 11.5 4.16 4.3 7.76 4.6 11.92.72 2.3-2.16 5-2.88 11.5-2.88h8.48l1.58 7.33a43.28 43.28 0 0 1 1.44 7.76c-.3.15-7.47 3.6-16.1 7.62-13.36 6.47-16.24 7.33-20.12 6.33-8.34-2.3-15.1 2.44-15.24 10.63 0 10.36 12.65 14.82 19.7 6.9 1.86-2 3.3-4.6 3.3-5.6 0-1.86 29.47-18 32.63-18 .72 0 2.6 2.3 4.46 5.18l3.44 5.18-4 4.17c-2.15 2.3-5.46 4.17-7.33 4.17-7.46 0-11.78 10.35-6.6 16.1 5 5.6 16.24 1.72 16.24-5.9.15-2 2-5.9 4.3-8.62l4-4.75 4.46 3a38.38 38.38 0 0 0 8.63 4.6l4.17 1.44-1.87 8.2c-1 4.45-2.73 8.33-3.88 8.76s-3.6 2.44-5.75 4.6c-5.46 5.32-5.32 11.64.14 17.25 5.9 5.9 14.66 5.32 19.84-1.44 2.73-3.45 2.15-12.22-.86-16.1-2.3-3-2.45-4.3-1.15-11.06 1.58-7.2 1.72-7.48 6.32-7.48h4.73v28.75h4.46c4 0 4.73-.72 9.76-11.93 4.75-10.2 6.18-12.08 10.5-13.66 4.6-1.58 5.9-1.3 17 3.45l11.93 5.2 7-7.06 7.18-7.18-4.82-11.84-4.6-12.08 2.73-4.88c2.3-4.17 4.44-5.6 12.78-8.63 5.46-1.87 10.92-4.17 11.93-5 1.3-1 1.74-4.46 1.45-10.78l-.43-9.34-11.8-5.17c-10.34-4.45-12.06-5.75-13.93-10.2-1.88-4.75-1.74-5.47 2.86-14.67 2.73-5.3 4.9-10.5 4.9-11.64s-3.17-4.9-6.9-8.62l-6.9-6.9-12.1 4.42c-11.8 4.32-11.93 4.32-17.1 1.87-4.47-2.3-5.76-4-9.35-13.8l-4.16-11.07h-12.5v27.3h-5c-2.73 0-5-.43-5-1.14s-.72-3.9-1.3-7.5c-1.14-5.3-.85-6.9 1.45-9.76 1.42-2 2.72-4.75 2.72-6.18 0-4.17-3-9.5-6.33-11.07A15.7 15.7 0 0 0 89.7 0zm32.48 50.6c15 4.16 28.46 18.54 31.9 33.77 5.2 23.43-11.06 48.73-34.34 53.47-22.57 4.75-44.13-7.18-52.32-28.6-7.77-20.56 2.3-45.7 22.28-55.48 9.05-4.45 23.14-5.76 32.48-3.16zM70.43 94.73c0 16 12.5 32.06 28.6 36.5 10.5 2.9 17.1 2.46 27.46-2.14 14.08-6.34 22.13-19 22.13-35.1 0-19.1-11.36-33.33-30.33-38.08-23.3-5.75-47.87 14.23-47.87 38.8zM114 64.55a19.34 19.34 0 0 1 2.86 4.3c2.6 4.18 2.6 4.32-.3 4.32-2.43 0-3-.86-3-4.3 0-2.45.14-4.32.43-4.32zm-10.5 2.87l2.87-3.6v4.6c0 3.74-.58 4.75-2.88 4.75-1.6 0-2.88-.43-2.88-1.15s1.3-2.6 2.87-4.6zm26.86 2.16c3.74 3.3 3.88 3.45 1 3.6-1.73 0-4.17-1.6-5.46-3.6-3-4.58-.7-4.58 4.46 0zm-35.5-2.88c0 2.88-3.45 6.47-6 6.47-2.44 0-2.73-.3-1.15-2.3 2.14-2.44 7.17-5.46 7.17-4.17zm39.82 13.66c2.58 0 4.74.14 4.74.43s.57 2.43 1.3 5l1.43 4.6h-5.6c-5.18 0-5.47-.3-6-5s-.46-5.04 4.14-5.04zm-17 0c4.17 0 5.9 2 5.9 7.33 0 2.14-1 2.72-5 2.72-4.75 0-5-.3-5-5s.4-5.06 4.14-5.06zm-16.1.3c4.6-.45 4.75-.3 4.75 4.6s-.14 5.16-5.18 5.16c-4.88 0-5-.14-4.6-4.74.48-4.03 1.05-4.6 5.08-5.03zm-16.67-.3c3.75 0 4.18.43 4.18 5 0 4.9-.14 5-5.75 5-3.16 0-5.75-.3-5.75-.58s.72-2.44 1.58-5c1.34-3.56 2.34-4.42 5.8-4.42zm51.6 17.25h5.62l-1.44 4.6c-.72 2.6-1.3 4.9-1.3 5s-2.15.44-4.73.44c-4.6 0-4.75-.14-4.17-5s.88-5.03 6.07-5.03zm-18 0c4 0 5 .58 5 2.74 0 5.32-1.72 7.33-5.9 7.33-3.72 0-4.15-.43-4.15-5s.4-5.06 5.14-5.06zm-17.4 0c5 0 5.2.15 5.2 5.18s-.15 5-4.75 4.6c-4-.43-4.6-1-5-5.17-.4-4.45-.2-4.6 4.64-4.6zm-18 0c5.33 0 5.6.3 6.2 5s.42 5-4 5c-3.9 0-4.9-.7-6.2-4.45-.85-2.58-1.57-4.88-1.57-5s2.68-.54 5.7-.54zm47.87 17.7c2.6.13 2.6.42-1 3.44-4.9 4.3-7.2 4.17-4.32-.15 1.56-2.02 3.7-3.46 5.44-3.3zm-14.66-.44c2.45 0 2.74.43 1.6 2.44-3.9 6.76-4.46 7-4.46 2.16.12-3.74.7-4.6 3-4.6zm-12.93 0c2.3 0 2.88 1 2.88 4.6v4.74l-2.88-3.6c-1.58-2-2.87-4-2.87-4.74s1.4-1 3-1zm-14.8 0a5.65 5.65 0 0 1 4.74 3c2.46 4.46.87 4.75-3.72.72-3.9-3.44-3.9-3.58-.9-3.72zM67.42 1.88c4 4.74-3.17 11.93-7.9 7.9a6.84 6.84 0 0 1-1.74-5.46c.3-2.88 1.3-3.88 4.17-4.17a6.83 6.83 0 0 1 5.47 1.73zM62.96 175.5c1.87 1.88 2.16 5.33.86 8.93-1 2.73-7.9 3-10.35.57-4-4-1-11.2 4.75-11.2a7.37 7.37 0 0 1 4.74 1.7z" class="cls-1"/><path d="M227.3 132.05q1.2-12.57 1.6-19.76.57-9.83 1.1-27t.55-24.18q0-2.5-.05-7.08 7.6.18 12.05.17 6.22 0 14.5-.24t14.24-.26a87.86 87.86 0 0 1 10.16.4 25.37 25.37 0 0 1 7 1.83 16.76 16.76 0 0 1 5 3.25 16.4 16.4 0 0 1 3.48 5.5 21.3 21.3 0 0 1 1.43 7.8 23.2 23.2 0 0 1-.83 6.24 18.85 18.85 0 0 1-2.34 5.3 16.83 16.83 0 0 1-3.4 3.84 18 18 0 0 1-3.7 2.4 31.06 31.06 0 0 1-4.8 1.7 29.7 29.7 0 0 1 4.84 1.2 16.72 16.72 0 0 1 3.92 2.1A16 16 0 0 1 295.8 99a16.73 16.73 0 0 1 2.48 5.1 20.9 20.9 0 0 1 .83 6 23 23 0 0 1-1.42 8.18 19.24 19.24 0 0 1-4 6.57 18.2 18.2 0 0 1-5.66 4 27.14 27.14 0 0 1-7.14 2.3 105.38 105.38 0 0 1-10.83.67c-5.23.16-10.8.23-16.65.23l-15.04-.05zm24.14-15.65h11a28.38 28.38 0 0 0 6.4-.52 10.32 10.32 0 0 0 3.84-1.65 7.2 7.2 0 0 0 2.1-2.8 9.86 9.86 0 0 0 .76-3.94 8.2 8.2 0 0 0-.63-3.33 6.13 6.13 0 0 0-1.88-2.4 8 8 0 0 0-3.08-1.4 28 28 0 0 0-5.72-.42h-12zm1.3-31.94h8.14a53.6 53.6 0 0 0 5.7-.2 17.54 17.54 0 0 0 3.28-.7 6.66 6.66 0 0 0 2.77-1.72 7 7 0 0 0 1.66-2.7 9.62 9.62 0 0 0 .48-3 7.2 7.2 0 0 0-1-3.76 6 6 0 0 0-3.23-2.46 21.6 21.6 0 0 0-6.8-.8h-10.28zM309.28 132.05l1-12.3 2.2-42.7.64-23q8 .12 12 .12 5.2 0 11.5-.12l-1.3 17.54-2.1 43.18-.46 17.25c-4.08 0-7.76-.05-11-.05zM379.6 72.24a42.87 42.87 0 0 1 13.63 2.17 30.7 30.7 0 0 1 11.06 6.26 25.2 25.2 0 0 1 6.64 9.55 31.77 31.77 0 0 1 2.14 11.8 35.05 35.05 0 0 1-1.9 11.62 28.75 28.75 0 0 1-6.5 10.34 28.22 28.22 0 0 1-11.62 7.23 47.3 47.3 0 0 1-28.88.27A29.74 29.74 0 0 1 353 125.3a25.85 25.85 0 0 1-6.73-9.7 31.84 31.84 0 0 1-2.25-11.9 32.6 32.6 0 0 1 2.2-11.87 27.87 27.87 0 0 1 7-10.17 32.23 32.23 0 0 1 11.8-6.94 44.47 44.47 0 0 1 14.6-2.48zm-.4 16.8a11.2 11.2 0 0 0-10.82 7.4 21.08 21.08 0 0 0-1.46 7.9q0 6.28 3.15 9.63a10.34 10.34 0 0 0 7.88 3.34 11.33 11.33 0 0 0 6.46-1.9 11.66 11.66 0 0 0 4.32-5.66 21.93 21.93 0 0 0 1.46-8 16.93 16.93 0 0 0-1.15-6.4 9.62 9.62 0 0 0-3.74-4.57 10.73 10.73 0 0 0-6.1-1.77zM426.1 139.14a91.16 91.16 0 0 0 13 3.5 56.2 56.2 0 0 0 9.78 1 21.1 21.1 0 0 0 5.48-.64 13.66 13.66 0 0 0 3.94-1.63 9.42 9.42 0 0 0 2.55-2.45 11.78 11.78 0 0 0 1.62-3.32 20.58 20.58 0 0 0 .8-4.22q.24-2.4.4-6.63c-1.48 1.33-2.77 2.4-3.85 3.2a23.48 23.48 0 0 1-4 2.3 24 24 0 0 1-5.23 1.73 28.64 28.64 0 0 1-6 .6 25.72 25.72 0 0 1-13.1-3.37 21 21 0 0 1-8.67-9.42 30.2 30.2 0 0 1-2.86-13.08 35.4 35.4 0 0 1 3.08-15 31.08 31.08 0 0 1 8.82-11.3 33 33 0 0 1 12.6-6.4 62.14 62.14 0 0 1 15.5-1.78q5 0 11.3.6t17.3 2.6l-1.34 18.85-1.2 20.73c-.1 1.5-.12 2.7-.12 3.66l-.44 18.56a34.6 34.6 0 0 1-.86 6.74 18 18 0 0 1-2.1 5.43 17.66 17.66 0 0 1-3.67 4.4 19.35 19.35 0 0 1-5.37 3.2 37.5 37.5 0 0 1-7.14 2.05 52 52 0 0 1-9.3.8c-1.84 0-4.08-.08-6.75-.25s-5.4-.43-8.2-.78-5.2-.7-7.25-1.08-4.62-.93-7.74-1.66l-.4-7.54q-.06-2.15-.57-9.4zm39.2-49.42a33.46 33.46 0 0 0-6.33-.7 18.66 18.66 0 0 0-8.86 2 13.62 13.62 0 0 0-5.77 5.9 17.32 17.32 0 0 0-2.05 8.16 15 15 0 0 0 1.08 5.73 8.57 8.57 0 0 0 3.6 4.16 10.1 10.1 0 0 0 5.3 1.52 10.4 10.4 0 0 0 7.28-3 15.65 15.65 0 0 0 4.4-8.13c.8-3.43 1.24-8.65 1.36-15.63zM528.54 132.05q1.44-14.73 2.1-24.68t1.3-26.37q.67-16.48.67-21.85l-.05-5q13.48.12 32.62.12 17.64 0 31.13-.12l-.12 1.88c0 .46-.13 2.1-.28 5l-.35 6.2c-.07 1.34-.1 2.7-.1 4q-11-.44-18.52-.44h-11.1q-2.9 0-9 .25l-.7 13.14q6.74.15 15.7.16 3.22 0 17-.4-.56 7.32-1.07 17.43-9.88-.13-15.2-.13-7.86 0-17.63.4l-.68 13.88h6.56q2.92 0 12-.17l11.83-.28q2.63-.06 8.8-.46-.7 8.46-1.15 17.48-13.95-.1-30.57-.1l-25.13.05zM603.36 158.8q1.1-11.72 1.83-23.38 1.3-19.93 1.8-33.45t.47-26.76q11.6-1.76 18.17-2.36t13.14-.6a63 63 0 0 1 15.1 1.76 22.55 22.55 0 0 1 11.1 6 28.06 28.06 0 0 1 6.38 10.35 37.53 37.53 0 0 1 2.1 12.57 39.7 39.7 0 0 1-1.7 11.62 30.8 30.8 0 0 1-5.25 10.14 22.64 22.64 0 0 1-8.13 6.7 23.78 23.78 0 0 1-10.24 2.16 31.83 31.83 0 0 1-5.8-.55 31.24 31.24 0 0 1-5.68-1.58 30.85 30.85 0 0 1-4.48-2.08 51.67 51.67 0 0 1-4.48-3.06l-.64 15.94q-.4 11-.4 16.57-6.64-.13-11.4-.13-4.15 0-11.9.12zm26.34-69q-.46 2.56-.63 4.2c-.12 1.07-.23 2.54-.35 4.38s-.17 3.33-.17 4.43a18.82 18.82 0 0 0 1.46 7.87 11.5 11.5 0 0 0 4.07 4.9 9.82 9.82 0 0 0 5.57 1.75 10 10 0 0 0 5.77-1.8 12.1 12.1 0 0 0 4.18-5.4 20.36 20.36 0 0 0 1.54-8.1q0-6.1-3.22-9.83t-9.4-3.73a34.36 34.36 0 0 0-8.84 1.3zM687.25 90.35q1.08-5.65 1.37-7.8t.9-6.7q16.47-3.6 28.3-3.6a47.14 47.14 0 0 1 12.33 1.5 18.08 18.08 0 0 1 8.75 4.9q3.13 3.35 3.14 9.64 0 3.18-.86 14.4t-1.3 29.35c-3.74-.07-7.46-.1-11.15-.1s-7.4 0-11.43.1q.78-6.28 1.72-25.93c-1.44.68-2.57 1.18-3.4 1.48s-2.24.76-4.3 1.37-3.65 1.13-4.8 1.54a11.84 11.84 0 0 0-3 1.6 6.4 6.4 0 0 0-1.83 2 4.87 4.87 0 0 0-.55 2.3 4.26 4.26 0 0 0 1.54 3.3c1 .93 2.66 1.38 4.9 1.38a16.9 16.9 0 0 0 2.57-.2 22.4 22.4 0 0 0 3.77-1q-1.65 4.4-3.94 12.86a58.37 58.37 0 0 1-9.3.8 30.85 30.85 0 0 1-11.8-2 14.74 14.74 0 0 1-7.26-6.37 17.43 17.43 0 0 1-2.54-8.8 15.17 15.17 0 0 1 .94-5.26 17.6 17.6 0 0 1 2.94-5 20 20 0 0 1 4.68-4.2 32.26 32.26 0 0 1 7.34-3.28 94.77 94.77 0 0 1 11.8-2.9q3-.58 5.45-1.24a25.6 25.6 0 0 0 3.54-1.14 6 6 0 0 0 1.7-1.15 4 4 0 0 0 .94-1.38 4 4 0 0 0 .3-1.5 3.73 3.73 0 0 0-1.84-3.35 10 10 0 0 0-5.37-1.17q-9.83 0-24.28 5.55zM752.6 132.05l1-12.3 2.2-42.7.64-23q7.95.12 11.95.12 5.2 0 11.5-.12l-1.3 17.54-2.1 43.18-.47 17.25c-4.08 0-7.76-.05-11-.05z" class="cls-2"/></svg>