<svg xmlns="http://www.w3.org/2000/svg" viewBox="0 0 455 79.94"><defs><style>.cls-1{fill:#FFFFFF;}</style></defs><title>logo_epalshop</title><g id="Layer_2" data-name="Layer 2"><path class="cls-1" d="M41.54,126.66a8.25,8.25,0,0,0,0,9.54H130.8s3.78,0,3.06-15.3c0,0-1.44-27.53-32.94-28.79,0,0-22.67-.9-36.17,19.08L19,111.37s-4.68,5.22,0,9.53H72.13S86.53,97.69,105.78,104c0,0,17.82,2.16,15.66,22.67Z" transform="translate(-16.96 -92.1)"/></g><g id="Layer_3" data-name="Layer 3"><path class="cls-1" d="M42.8,141.9s-4.26,5.22,0,9.48H57.31S64,173,91,172c0,0,18.47.84,33.11-16.31L118,148.86s-11.28,13.56-26.27,13.08c0,0-20.28,1.56-24.36-20Z" transform="translate(-16.96 -92.1)"/><text x="-16.96" y="-92.1"></text></g><g id="Layer_4" data-name="Layer 4"><circle cx="14.2" cy="39.3" r="4.92"/></g><g id="Layer_6" data-name="Layer 6"><path class="cls-1" d="M152.39,157h-8.65V119.88H179.6a9.4,9.4,0,0,1,7.56,3.69,14.67,14.67,0,0,1,0,17.65,9.43,9.43,0,0,1-7.56,3.66H157.77v-8.65H179.6c1.24,0,1.86-1.27,1.86-3.8s-.62-3.9-1.86-3.9H152.39Z" transform="translate(-16.96 -92.1)"/><path class="cls-1" d="M238,157h-8.61V145.16H206.64v-8.65h22.78v-5.17c0-1.87-.64-2.81-1.9-2.81H203.05c-1.2,0-1.79.94-1.79,2.81V157h-8.65V131.34a11.76,11.76,0,0,1,2.88-8,9.56,9.56,0,0,1,7.56-3.45h24.47a9.65,9.65,0,0,1,7.59,3.45,11.65,11.65,0,0,1,2.92,8Z" transform="translate(-16.96 -92.1)"/><path class="cls-1" d="M278.71,157H241.62V119.88h8.64v28.44h28.45Z" transform="translate(-16.96 -92.1)"/><path class="cls-1" d="M321.39,153.63A9.7,9.7,0,0,1,313.9,157h-32v-8.65h32c1.19,0,1.79-.93,1.79-2.81s-.6-2.81-1.79-2.81H290.62a9.71,9.71,0,0,1-7.48-3.31,11.4,11.4,0,0,1-3-8,11.65,11.65,0,0,1,2.92-8,9.74,9.74,0,0,1,7.59-3.45h32v8.65h-32c-1.19,0-1.79.94-1.79,2.81s.6,2.75,1.79,2.75H313.9a9.7,9.7,0,0,1,7.49,3.34,12.73,12.73,0,0,1,0,16.2Z" transform="translate(-16.96 -92.1)"/><path class="cls-1" d="M372.47,157h-8.76V142.7H335.48V157h-8.65V119.88h8.65v14.21h28.23V119.88h8.76Z" transform="translate(-16.96 -92.1)"/><path class="cls-1" d="M422,145.23a11.06,11.06,0,0,1-3.58,8.4,11.82,11.82,0,0,1-8.51,3.34H388.15a11.86,11.86,0,0,1-8.55-3.34,11.14,11.14,0,0,1-3.55-8.4v-13.6a11.17,11.17,0,0,1,3.55-8.37,11.91,11.91,0,0,1,8.55-3.38h21.76a11.85,11.85,0,0,1,8.51,3.38,11.09,11.09,0,0,1,3.58,8.37Zm-8.65-13.6c0-2.07-1.14-3.1-3.44-3.1H388.15q-3.45,0-3.45,3.1v13.6q0,3.09,3.45,3.09h21.76c2.3,0,3.44-1,3.44-3.09Z" transform="translate(-16.96 -92.1)"/><path class="cls-1" d="M434.24,157h-8.65V119.88h35.86a9.4,9.4,0,0,1,7.56,3.69,14.67,14.67,0,0,1,0,17.65,9.43,9.43,0,0,1-7.56,3.66H439.62v-8.65h21.83c1.24,0,1.86-1.27,1.86-3.8s-.62-3.9-1.86-3.9H434.24Z" transform="translate(-16.96 -92.1)"/></g></svg>